<?xml version="1.0" standalone="no"?>
<!DOCTYPE svg PUBLIC "-//W3C//DTD SVG 20010904//EN"
 "http://www.w3.org/TR/2001/REC-SVG-20010904/DTD/svg10.dtd">
<svg version="1.0" xmlns="http://www.w3.org/2000/svg"
 width="260.000000pt" height="260.000000pt" viewBox="0 0 260.000000 260.000000"
 preserveAspectRatio="xMidYMid meet">
<metadata>
Created by potrace 1.14, written by Peter Selinger 2001-2017
</metadata>
<g transform="translate(0.000000,260.000000) scale(0.100000,-0.100000)"
fill="#000000" stroke="none">
<path d="M569 2376 c-2 -2 -22 -6 -44 -10 -153 -22 -316 -128 -415 -271 -34
-49 -72 -133 -91 -200 -14 -52 -19 -263 -6 -340 31 -201 103 -389 217 -570 56
-88 55 -87 113 -147 129 -133 411 -167 619 -75 57 25 158 87 158 97 0 3 -29
20 -65 38 -168 87 -268 255 -274 458 -2 97 -3 99 -36 132 -40 40 -58 101 -45
156 12 53 38 85 91 114 103 55 228 -11 244 -130 8 -55 -9 -101 -53 -144 -28
-29 -30 -35 -30 -105 1 -155 70 -274 196 -336 50 -25 68 -28 152 -28 83 0 101
3 145 27 70 37 132 100 163 166 22 46 27 75 30 150 4 94 4 94 -28 127 -102
105 -45 273 99 292 96 13 191 -72 191 -169 -1 -43 -32 -111 -61 -132 -21 -14
-24 -24 -25 -102 -3 -106 -17 -170 -58 -254 -40 -85 -140 -185 -221 -224 -66
-31 -140 -56 -169 -56 -10 0 -45 -27 -78 -59 -158 -159 -357 -239 -592 -241
l-79 0 82 -65 c153 -120 339 -234 478 -292 95 -39 154 -37 262 10 80 35 311
166 311 177 0 12 -120 40 -173 39 -48 0 -64 4 -93 26 -65 50 -82 125 -43 195
34 61 103 88 173 69 41 -11 91 -66 101 -108 5 -25 14 -33 48 -42 67 -19 156
-15 211 9 85 38 286 259 401 441 214 342 277 770 149 1023 -140 276 -456 414
-749 328 -121 -36 -256 -128 -392 -267 l-82 -84 -96 95 c-149 148 -303 242
-445 272 -60 13 -181 19 -191 10z"/>
</g>
</svg>
